<svg xmlns="http://www.w3.org/2000/svg" width="561" height="148" viewBox="0 0 561 148" version="1.1"><path d="M 240.482 132.741 C 247.621 132.918, 253.857 133.457, 254.338 133.938 C 254.838 134.438, 254.632 134.786, 253.857 134.749 C 253.111 134.714, 250.813 134.756, 248.750 134.842 C 246.129 134.953, 245 135.458, 245 136.521 C 245 137.358, 243.845 138.569, 242.433 139.212 C 240.523 140.083, 240.008 140.909, 240.420 142.441 C 240.724 143.573, 240.979 145.287, 240.986 146.250 C 240.999 147.865, 242.745 148, 263.542 148 L 286.084 148 285.792 140.250 L 285.500 132.500 256.500 132.459 C 240.550 132.437, 233.342 132.564, 240.482 132.741" stroke="none" fill="#db2b49" fill-rule="evenodd"/><path d="M 171.750 132.673 C 182.057 132.896, 189 133.439, 189 134.023 C 189 134.587, 185.192 135, 180 135 C 175.050 135, 171 135.395, 171 135.879 C 171 136.362, 172.350 137.317, 174 138 C 176.687 139.113, 177 139.699, 177 143.621 L 177 148 209.128 148 L 241.256 148 240.641 144.155 C 240.095 140.739, 240.304 140.183, 242.513 139.176 C 243.881 138.553, 245 137.358, 245 136.521 C 245 135.458, 246.129 134.953, 248.750 134.842 C 250.813 134.756, 253.111 134.714, 253.857 134.749 C 254.748 134.791, 254.875 134.475, 254.228 133.828 C 253.615 133.215, 234.582 132.740, 203.871 132.572 C 176.717 132.422, 162.262 132.468, 171.750 132.673" stroke="none" fill="#e22d40" fill-rule="evenodd"/><path d="M 0 139.992 L 0 148 54.955 148 L 109.909 148 110.523 144.727 C 110.861 142.928, 110.994 139.440, 110.819 136.977 L 110.500 132.500 55.250 132.242 L 0 131.983 0 139.992" stroke="none" fill="#f1a236" fill-rule="evenodd"/><path d="M 460 140 L 460 148 510.500 148 L 561 148 561 140 L 561 132 510.500 132 L 460 132 460 140" stroke="none" fill="#6506d0" fill-rule="evenodd"/><path d="M 285.826 139.998 L 286.152 148 373.076 148 L 460 148 460 140 L 460 132 372.750 131.998 L 285.500 131.995 285.826 139.998" stroke="none" fill="#a61bb5" fill-rule="evenodd"/><path d="M 110.986 137.599 C 110.979 140.844, 110.701 144.512, 110.370 145.750 L 109.767 148 143.383 148 L 177 148 177 143.621 C 177 139.699, 176.687 139.113, 174 138 C 172.350 137.317, 171 136.362, 171 135.879 C 171 135.395, 175.050 135, 180 135 C 185.333 135, 189 134.593, 189 134 C 189 133.406, 185.243 132.996, 179.750 132.989 C 174.662 132.983, 157.113 132.690, 140.750 132.338 L 111 131.697 110.986 137.599" stroke="none" fill="#eb3823" fill-rule="evenodd"/><path d="" stroke="none" fill="#d24264" fill-rule="evenodd"/><path d="M 4 33 L 4 66 12.500 66 L 21 66 21 52.155 C 21 40.012, 21.225 38.107, 22.829 36.655 C 23.835 35.745, 25.635 35, 26.829 35 C 28.023 35, 29.900 35.900, 31 37 C 32.802 38.802, 33 40.333, 33 52.500 L 33 66 41.064 66 L 49.129 66 48.814 48.570 C 48.529 32.730, 48.309 30.882, 46.408 28.320 C 45.257 26.769, 42.782 24.449, 40.908 23.163 C 37.975 21.152, 36.595 20.887, 31 21.260 C 27.425 21.498, 23.713 22.035, 22.750 22.453 C 21.140 23.153, 21 22.284, 21 11.607 L 21 0 12.500 0 L 4 0 4 33 M 523 12.500 L 523 22 518 22 L 513 22 513 28.500 L 513 35 518 35 L 523 35 523 50.500 L 523 66 531 66 L 539 66 539 50.500 L 539 35 544 35 L 549 35 549 28.500 L 549 22 544 22 L 539 22 539 12.500 L 539 3 531 3 L 523 3 523 12.500 M 175.147 21.115 C 172.752 21.564, 168.805 23.096, 166.374 24.521 C 163.944 25.945, 160.728 28.965, 159.228 31.232 C 156.975 34.635, 156.445 36.674, 156.184 42.927 C 155.889 50.008, 156.084 50.854, 159.184 55.957 C 161.735 60.154, 163.738 62.058, 167.864 64.207 C 172.328 66.531, 174.473 67, 180.646 67 C 185.079 67, 189.555 66.377, 191.768 65.452 C 193.806 64.601, 196.500 62.939, 197.756 61.760 L 200.039 59.615 195.898 55.396 L 191.757 51.177 188.629 53.085 C 186.893 54.143, 183.668 54.994, 181.385 54.996 C 178.731 54.999, 176.334 54.264, 174.635 52.927 C 173.186 51.788, 172 50.438, 172 49.927 C 172 49.397, 178.642 49, 187.500 49 L 203 49 202.978 43.250 C 202.965 39.867, 202.207 35.850, 201.135 33.491 C 200.133 31.287, 197.707 28.072, 195.743 26.347 C 193.779 24.623, 190.670 22.756, 188.836 22.199 C 187.001 21.641, 184.150 20.986, 182.500 20.742 C 180.850 20.498, 177.541 20.665, 175.147 21.115 M 288.147 21.091 C 285.752 21.553, 281.805 23.096, 279.374 24.521 C 276.944 25.945, 273.746 28.938, 272.268 31.172 C 270.243 34.231, 269.479 36.819, 269.171 41.660 C 268.891 46.060, 269.277 49.438, 270.397 52.371 C 271.297 54.727, 273.488 58.150, 275.267 59.978 C 277.045 61.806, 280.300 64.124, 282.500 65.129 C 285.159 66.344, 288.892 66.963, 293.636 66.978 C 299.531 66.996, 301.701 66.514, 306.119 64.207 C 309.310 62.540, 312.579 59.818, 314.226 57.457 C 315.744 55.280, 317.422 51.168, 317.954 48.318 C 318.652 44.581, 318.570 41.777, 317.657 38.258 C 316.961 35.575, 315.133 31.730, 313.596 29.715 C 312.035 27.668, 308.526 24.976, 305.650 23.619 C 302.818 22.282, 298.700 20.977, 296.500 20.719 C 294.300 20.461, 290.541 20.628, 288.147 21.091 M 485 20.922 C 483.075 21.314, 479.798 22.449, 477.717 23.446 C 475.636 24.443, 472.409 27.041, 470.546 29.218 C 468.542 31.558, 466.669 35.213, 465.962 38.158 C 465.305 40.899, 465.056 44.950, 465.410 47.162 C 465.764 49.374, 466.928 52.899, 467.997 54.995 C 469.067 57.091, 471.555 60.136, 473.527 61.762 C 475.499 63.387, 478.827 65.231, 480.922 65.859 C 483.018 66.486, 487.605 66.996, 491.116 66.990 C 495.778 66.983, 498.920 66.319, 502.767 64.528 C 505.663 63.180, 508.315 61.343, 508.659 60.446 C 509.078 59.354, 507.945 57.475, 505.234 54.763 L 501.182 50.712 498.456 52.856 C 496.510 54.387, 494.326 55, 490.820 55 C 486.785 55, 485.427 54.509, 483.205 52.250 L 480.500 49.500 496.237 49.225 L 511.975 48.949 512.608 46.427 C 512.956 45.040, 512.949 42.086, 512.594 39.861 C 512.238 37.637, 511.047 34.052, 509.946 31.895 C 508.846 29.738, 506.132 26.659, 503.915 25.053 C 501.698 23.447, 498.560 21.878, 496.942 21.567 C 495.324 21.255, 492.762 20.823, 491.250 20.606 C 489.738 20.389, 486.925 20.531, 485 20.922 M 66.500 22.408 C 64.850 23.139, 62.241 24.920, 60.703 26.365 C 59.165 27.809, 57.037 30.906, 55.975 33.246 C 54.701 36.052, 54.044 39.713, 54.044 44 C 54.044 48.185, 54.697 51.925, 55.879 54.500 C 56.888 56.700, 59.016 59.801, 60.607 61.390 C 62.198 62.980, 64.948 64.892, 66.718 65.640 C 68.488 66.388, 72.223 67, 75.018 67 C 77.813 67, 81.427 66.313, 83.050 65.474 C 84.741 64.600, 86 64.386, 86 64.974 C 86 65.590, 89.200 66, 94 66 L 102 66 102 44 L 102 22 94 22 C 89.600 22, 86 22.423, 86 22.941 C 86 23.458, 84.763 23.236, 83.250 22.447 C 81.737 21.658, 78.025 21.027, 75 21.045 C 71.975 21.063, 68.150 21.677, 66.500 22.408 M 410.668 21.666 C 410.302 22.032, 405.277 22.232, 399.501 22.112 L 389 21.893 389 43.946 L 389 66 397.500 66 L 406 66 406 52.071 C 406 40.742, 406.293 37.850, 407.571 36.571 C 408.436 35.707, 410.166 35, 411.416 35 C 412.667 35, 414.435 35.823, 415.345 36.829 C 416.715 38.343, 417 41.011, 417 52.329 L 417 66 425 66 L 433 66 433 52.723 C 433 42.324, 433.338 38.963, 434.557 37.223 C 435.413 36, 437.017 35, 438.122 35 C 439.227 35, 441.002 35.466, 442.066 36.035 C 443.841 36.985, 444 38.258, 444 51.535 L 444 66 452.500 66 L 461 66 461 50.316 C 461 36.460, 460.757 34.129, 458.914 30.323 C 457.767 27.953, 455.424 25.014, 453.707 23.791 C 451.518 22.233, 448.719 21.450, 444.342 21.171 C 439.419 20.857, 437.156 21.230, 433.635 22.934 L 429.171 25.096 425.350 23.048 C 422.932 21.751, 419.659 21, 416.431 21 C 413.627 21, 411.034 21.299, 410.668 21.666 M 106.153 22.892 C 106.344 23.427, 110.325 33.338, 115 44.917 L 123.500 65.971 131 65.971 L 138.500 65.971 147 44.917 C 151.675 33.338, 155.656 23.427, 155.847 22.892 C 156.059 22.295, 152.776 22.032, 147.356 22.210 L 138.519 22.500 135.049 34.250 C 133.140 40.713, 131.336 45.997, 131.039 45.993 C 130.743 45.990, 128.911 40.702, 126.968 34.243 L 123.436 22.500 114.621 22.210 C 109.216 22.032, 105.941 22.295, 106.153 22.892 M 221.906 26.750 C 222.939 29.363, 226.678 38.714, 230.215 47.530 L 236.647 63.560 233.719 70.030 C 232.109 73.589, 229.954 78.412, 228.931 80.750 L 227.071 85 235.378 85 L 243.685 85 255.813 55.250 C 262.483 38.887, 268.234 24.694, 268.593 23.709 C 269.193 22.061, 268.543 21.942, 260.435 22.209 L 251.624 22.500 248.388 33.340 C 246.609 39.303, 244.961 44.372, 244.728 44.606 C 244.494 44.839, 242.799 39.849, 240.961 33.515 L 237.620 22 228.825 22 L 220.029 22 221.906 26.750 M 322.195 37.250 C 322.575 50.491, 322.923 53.060, 324.836 56.749 C 326.075 59.138, 328.843 62.191, 331.159 63.724 C 334.375 65.852, 336.765 66.534, 342.048 66.833 C 345.771 67.043, 350.445 66.678, 352.434 66.022 C 354.423 65.365, 357.453 63.648, 359.168 62.205 C 360.882 60.763, 363.111 57.764, 364.120 55.541 C 365.632 52.214, 365.960 48.893, 365.978 36.750 L 366 22 357.500 22 L 349 22 349 36.300 C 349 46.089, 348.621 50.979, 347.800 51.800 C 347.140 52.460, 345.597 53, 344.371 53 C 343.146 53, 341.436 52.293, 340.571 51.429 C 339.293 50.150, 339 47.258, 339 35.929 L 339 22 330.378 22 L 321.757 22 322.195 37.250 M 174 35.500 L 171.651 38 179.794 38 C 186.687 38, 187.847 37.766, 187.351 36.472 C 187.029 35.632, 185.947 34.507, 184.948 33.972 C 183.949 33.437, 181.605 33, 179.740 33 C 177.416 33, 175.610 33.786, 174 35.500 M 484.223 34.557 C 483 35.413, 482 36.538, 482 37.057 C 482 37.576, 485.375 38, 489.500 38 C 493.625 38, 497 37.620, 497 37.155 C 497 36.690, 496.177 35.565, 495.171 34.655 C 494.165 33.745, 491.791 33, 489.894 33 C 487.997 33, 485.445 33.701, 484.223 34.557 M 76.034 35.897 C 74.678 36.269, 72.729 38.013, 71.702 39.771 C 70.394 42.009, 70.035 43.884, 70.504 46.018 C 70.872 47.695, 72.284 49.795, 73.641 50.685 C 74.998 51.574, 77.506 52.262, 79.214 52.213 C 80.923 52.164, 83.250 51.195, 84.387 50.057 C 85.786 48.658, 86.455 46.700, 86.455 44 C 86.455 41.333, 85.799 39.380, 84.477 38.110 C 83.390 37.064, 81.600 35.987, 80.500 35.715 C 79.400 35.443, 77.391 35.525, 76.034 35.897 M 290 36.270 C 288.625 36.979, 286.905 38.799, 286.178 40.315 C 285.425 41.887, 285.127 44.301, 285.485 45.932 C 285.831 47.505, 287.010 49.604, 288.106 50.596 C 289.222 51.606, 291.629 52.400, 293.572 52.400 C 295.717 52.400, 297.813 51.632, 299.054 50.390 C 300.160 49.285, 301.321 46.799, 301.634 44.865 C 302.086 42.080, 301.716 40.802, 299.852 38.713 C 298.559 37.262, 296.375 35.829, 295 35.528 C 293.625 35.227, 291.375 35.561, 290 36.270 M 8 102.752 C 5.472 104.014, 4.412 105.264, 4.184 107.250 C 3.960 109.193, 3.300 110, 1.934 110 C 0.538 110, 0 110.695, 0 112.500 C 0 114.056, 0.567 115, 1.500 115 C 2.700 115, 3 116.500, 3 122.500 L 3 130 6 130 L 9 130 9 122.566 C 9 115.200, 9.025 115.130, 11.750 114.816 C 13.719 114.590, 14.591 113.861, 14.820 112.250 C 15.093 110.325, 14.684 110, 11.986 110 C 10.010 110, 8.980 109.560, 9.226 108.821 C 9.442 108.173, 10.267 107.306, 11.060 106.894 C 11.852 106.481, 13.253 105.914, 14.172 105.633 C 15.292 105.291, 15.667 104.442, 15.306 103.061 C 15.009 101.928, 14.032 101.001, 13.133 101.002 C 12.235 101.002, 9.925 101.790, 8 102.752 M 32 104 C 32 106.667, 32.333 107, 35 107 C 37.667 107, 38 106.667, 38 104 C 38 101.333, 37.667 101, 35 101 C 32.333 101, 32 101.333, 32 104 M 100.667 101.667 C 100.300 102.033, 100 104.228, 100 106.544 L 100 110.754 95.750 110.280 C 92.474 109.914, 90.900 110.279, 88.881 111.872 C 87.441 113.009, 85.977 115.364, 85.629 117.105 C 85.281 118.846, 85.463 122.007, 86.035 124.129 C 86.773 126.871, 87.968 128.449, 90.165 129.585 C 92.057 130.564, 94.274 130.936, 95.878 130.545 C 97.320 130.193, 100.188 129.945, 102.250 129.993 L 106 130.081 106 115.541 L 106 101 103.667 101 C 102.383 101, 101.033 101.300, 100.667 101.667 M 140 115.500 L 140 130 143 130 C 145.793 130, 146 129.745, 146 126.297 L 146 122.594 149.792 126.297 C 152.608 129.047, 154.430 130, 156.869 130 L 160.155 130 155.606 124.675 L 151.057 119.351 155.028 115.472 C 157.213 113.339, 159 111.235, 159 110.797 C 159 110.359, 157.781 110, 156.292 110 C 154.519 110, 152.276 111.278, 149.792 113.703 L 146 117.406 146 109.203 L 146 101 143 101 L 140 101 140 115.500 M 251 115.541 L 251 130.081 254.750 129.993 C 256.813 129.945, 259.680 130.193, 261.122 130.545 C 262.718 130.934, 264.935 130.568, 266.788 129.609 C 268.750 128.595, 270.257 126.751, 271.024 124.428 C 271.679 122.444, 271.934 119.420, 271.592 117.709 C 271.249 115.997, 269.998 113.562, 268.810 112.298 C 267.328 110.720, 265.515 110, 263.026 110 C 261.032 110, 258.860 110.540, 258.200 111.200 C 257.267 112.133, 257 111.133, 257 106.700 C 257 101.033, 256.982 101, 254 101 L 251 101 251 115.541 M 317 107 C 317 109.333, 316.556 110, 315 110 C 313.533 110, 313 110.667, 313 112.500 C 313 114.333, 313.533 115, 315 115 C 316.770 115, 317 115.667, 317 120.809 C 317 124.004, 317.564 127.389, 318.253 128.332 C 318.943 129.274, 321.080 130.277, 323.003 130.559 C 324.926 130.841, 327.128 130.652, 327.896 130.137 C 328.663 129.623, 329.015 128.481, 328.677 127.601 C 328.339 126.720, 327.239 126, 326.231 126 C 325.224 126, 323.860 125.460, 323.200 124.800 C 322.540 124.140, 322 121.665, 322 119.300 C 322 115.189, 322.132 115, 325 115 C 327.533 115, 328 114.611, 328 112.500 C 328 110.389, 327.533 110, 325 110 C 322.333 110, 322 109.667, 322 107 C 322 104.467, 321.611 104, 319.500 104 C 317.389 104, 317 104.467, 317 107 M 16.667 110.667 C 16.300 111.033, 16 115.533, 16 120.667 L 16 130 19 130 C 21.974 130, 22 129.952, 22 124.434 C 22 121.373, 22.466 117.998, 23.035 116.934 C 23.701 115.690, 25.127 115, 27.035 115 C 29.531 115, 30 114.605, 30 112.500 C 30 110.640, 29.471 110, 27.934 110 C 26.798 110, 24.998 110.466, 23.934 111.035 C 22.601 111.749, 22 111.749, 22 111.035 C 22 110.466, 20.950 110, 19.667 110 C 18.383 110, 17.033 110.300, 16.667 110.667 M 32 120 L 32 130 35 130 L 38 130 38 120 L 38 110 35 110 L 32 110 32 120 M 43.923 112.923 C 41.767 115.079, 41 116.798, 41 119.473 C 41 121.467, 41.678 124.410, 42.506 126.011 C 43.532 127.996, 45.283 129.304, 48.006 130.120 C 51.123 131.054, 52.896 131.048, 56.082 130.094 C 59.066 129.200, 60.008 128.462, 59.582 127.353 C 59.262 126.519, 59 125.407, 59 124.883 C 59 124.307, 58.235 124.339, 57.066 124.965 C 56.002 125.534, 53.842 126, 52.266 126 C 50.690 126, 48.860 125.460, 48.200 124.800 C 47.540 124.140, 47 123.240, 47 122.800 C 47 122.360, 49.925 122, 53.500 122 L 60 122 60 118.455 C 60 116.024, 59.228 114.138, 57.545 112.455 C 55.733 110.642, 54.012 110, 50.969 110 C 47.746 110, 46.208 110.638, 43.923 112.923 M 63 120 L 63 130 66 130 L 69 130 69 123.571 C 69 119.061, 69.469 116.674, 70.571 115.571 C 71.436 114.707, 72.770 114, 73.536 114 C 74.303 114, 75.395 114.870, 75.965 115.934 C 76.534 116.998, 77 120.598, 77 123.934 C 77 129.738, 77.108 130, 79.500 130 C 81.967 130, 82 129.890, 82 121.655 C 82 114.840, 81.665 113.006, 80.171 111.655 C 79.165 110.745, 76.780 110, 74.871 110 C 72.962 110, 70.860 110.540, 70.200 111.200 C 69.267 112.133, 69 112.133, 69 111.200 C 69 110.533, 67.667 110, 66 110 L 63 110 63 120 M 112.223 111.557 C 110.803 112.551, 110 114.151, 110 115.985 C 110 117.565, 110.645 119.502, 111.433 120.290 C 112.221 121.078, 114.696 122.016, 116.933 122.373 C 119.757 122.825, 121 123.521, 121 124.652 C 121 126.025, 120.150 126.192, 115.576 125.720 C 111.309 125.280, 110.030 125.480, 109.576 126.662 C 109.259 127.488, 109 128.308, 109 128.484 C 109 128.660, 110.417 129.298, 112.149 129.902 C 113.881 130.506, 116.379 131, 117.699 131 C 119.019 131, 121.370 130.343, 122.923 129.540 C 124.475 128.737, 125.976 127.200, 126.257 126.124 C 126.538 125.049, 126.255 123.139, 125.628 121.881 C 124.866 120.352, 122.995 119.229, 119.994 118.498 C 117.234 117.827, 115.500 116.844, 115.500 115.952 C 115.500 114.987, 116.505 114.528, 118.500 114.584 C 120.150 114.630, 122.229 114.993, 123.121 115.391 C 124.208 115.877, 124.967 115.528, 125.425 114.334 C 125.865 113.188, 125.487 112.098, 124.363 111.276 C 123.403 110.574, 120.779 110, 118.531 110 C 116.284 110, 113.445 110.701, 112.223 111.557 M 161 120 L 161 130 164 130 L 167 130 167 123.571 C 167 118.964, 167.462 116.681, 168.629 115.514 C 169.525 114.618, 170.912 114.136, 171.711 114.442 C 172.510 114.749, 173.352 115, 173.582 115 C 173.812 115, 174 118.375, 174 122.500 L 174 130 177 130 L 180 130 180 122.223 C 180 116.802, 179.528 113.772, 178.443 112.223 C 177.306 110.599, 175.878 110, 173.143 110 C 171.084 110, 168.860 110.540, 168.200 111.200 C 167.267 112.133, 167 112.133, 167 111.200 C 167 110.533, 165.667 110, 164 110 L 161 110 161 120 M 187.299 111.503 C 186.119 112.330, 184.626 114.604, 183.981 116.556 C 183.337 118.509, 183.111 121.320, 183.479 122.803 C 183.847 124.286, 185.071 126.489, 186.200 127.698 C 187.328 128.907, 189.543 130.180, 191.122 130.527 C 192.701 130.874, 195.577 130.634, 197.514 129.995 C 199.676 129.282, 201.607 127.727, 202.517 125.966 C 203.333 124.389, 204 121.467, 204 119.473 C 204 116.798, 203.233 115.079, 201.077 112.923 C 198.741 110.587, 197.279 110, 193.799 110 C 191.405 110, 188.479 110.676, 187.299 111.503 M 205 110.927 C 205 111.509, 206.622 116.039, 208.605 120.993 C 211.875 129.164, 212.456 130, 214.861 130 C 217.182 130, 217.771 129.283, 219.587 124.250 L 221.661 118.500 223.712 124 C 225.411 128.555, 226.217 129.555, 228.404 129.819 C 230.598 130.083, 231.289 129.553, 232.487 126.685 C 233.280 124.786, 235.050 120.256, 236.420 116.617 L 238.910 110 236.093 110 C 233.533 110, 233.056 110.601, 230.859 116.601 L 228.441 123.201 226.111 116.601 C 224.160 111.076, 223.409 110, 221.499 110 C 219.855 110, 219.028 110.753, 218.541 112.695 C 218.169 114.177, 217.183 116.989, 216.350 118.945 L 214.835 122.500 212.575 116.500 C 210.673 111.451, 209.894 110.450, 207.657 110.184 C 206.196 110.010, 205 110.344, 205 110.927 M 276.923 112.923 C 274.767 115.079, 274 116.798, 274 119.473 C 274 121.467, 274.678 124.410, 275.506 126.011 C 276.532 127.996, 278.283 129.304, 281.006 130.120 C 284.123 131.054, 285.896 131.048, 289.082 130.094 C 292.066 129.200, 293.008 128.462, 292.582 127.353 C 292.262 126.519, 292 125.407, 292 124.883 C 292 124.307, 291.235 124.339, 290.066 124.965 C 289.002 125.534, 286.842 126, 285.266 126 C 283.690 126, 281.860 125.460, 281.200 124.800 C 280.540 124.140, 280 123.240, 280 122.800 C 280 122.360, 282.925 122, 286.500 122 L 293 122 293 118.455 C 293 116.024, 292.228 114.138, 290.545 112.455 C 288.733 110.642, 287.012 110, 283.969 110 C 280.746 110, 279.208 110.638, 276.923 112.923 M 298.223 111.557 C 296.829 112.532, 296 114.154, 296 115.902 C 296 117.435, 296.788 119.378, 297.750 120.218 C 298.712 121.059, 301.188 122.049, 303.250 122.419 C 305.735 122.864, 307 123.629, 307 124.685 C 307 126.017, 306.108 126.188, 301.576 125.720 C 297.194 125.268, 296.035 125.465, 295.542 126.750 C 295.207 127.625, 295.501 128.691, 296.196 129.121 C 296.891 129.550, 299.182 130.193, 301.287 130.548 C 303.572 130.935, 306.334 130.690, 308.141 129.941 C 309.806 129.252, 311.592 127.572, 312.111 126.209 C 312.799 124.399, 312.646 123.109, 311.544 121.427 C 310.582 119.959, 308.490 118.819, 305.768 118.281 C 303.065 117.746, 301.500 116.898, 301.500 115.968 C 301.500 114.985, 302.491 114.528, 304.500 114.584 C 306.150 114.630, 308.229 114.993, 309.121 115.391 C 310.208 115.877, 310.967 115.528, 311.425 114.334 C 311.865 113.188, 311.487 112.098, 310.363 111.276 C 309.403 110.574, 306.779 110, 304.531 110 C 302.284 110, 299.445 110.701, 298.223 111.557 M 48.200 115.200 C 47.540 115.860, 47 116.760, 47 117.200 C 47 117.640, 48.800 118, 51 118 C 53.752 118, 55 117.566, 55 116.607 C 55 115.841, 54.288 114.941, 53.418 114.607 C 52.548 114.273, 51.288 114, 50.618 114 C 49.948 114, 48.860 114.540, 48.200 115.200 M 92.557 116.223 C 91.701 117.445, 91 119.274, 91 120.288 C 91 121.302, 91.466 123.002, 92.035 124.066 C 92.605 125.130, 94.090 126, 95.335 126 C 96.581 126, 98.140 125.460, 98.800 124.800 C 99.460 124.140, 100 121.906, 100 119.835 C 100 117.136, 99.452 115.777, 98.066 115.035 C 97.002 114.466, 95.677 114, 95.122 114 C 94.567 114, 93.413 115, 92.557 116.223 M 190.655 115.829 C 189.745 116.835, 189 118.664, 189 119.894 C 189 121.125, 189.466 123.002, 190.035 124.066 C 190.605 125.130, 192.090 126, 193.335 126 C 194.581 126, 196.140 125.460, 196.800 124.800 C 197.460 124.140, 198 121.906, 198 119.835 C 198 117.136, 197.452 115.777, 196.066 115.035 C 195.002 114.466, 193.722 114, 193.221 114 C 192.720 114, 191.565 114.823, 190.655 115.829 M 258.571 115.571 C 257.707 116.436, 257 118.596, 257 120.371 C 257 122.147, 257.540 124.140, 258.200 124.800 C 258.860 125.460, 260.419 126, 261.665 126 C 262.910 126, 264.395 125.130, 264.965 124.066 C 265.534 123.002, 266 121.047, 266 119.721 C 266 118.395, 265.177 116.565, 264.171 115.655 C 263.165 114.745, 261.848 114, 261.243 114 C 260.638 114, 259.436 114.707, 258.571 115.571 M 281.200 115.200 C 280.540 115.860, 280 116.760, 280 117.200 C 280 117.640, 281.800 118, 284 118 C 286.752 118, 288 117.566, 288 116.607 C 288 115.841, 287.288 114.941, 286.418 114.607 C 285.548 114.273, 284.288 114, 283.618 114 C 282.948 114, 281.860 114.540, 281.200 115.200" stroke="none" fill="#040404" fill-rule="evenodd"/></svg>