<?xml version="1.0" standalone="no"?>
<!DOCTYPE svg PUBLIC "-//W3C//DTD SVG 20010904//EN"
 "http://www.w3.org/TR/2001/REC-SVG-20010904/DTD/svg10.dtd">
<svg version="1.0" xmlns="http://www.w3.org/2000/svg"
 width="400" layout="fit" viewBox="0 0 3000.000000 1217.000000"
 preserveAspectRatio="xMidYMid meet">

<g transform="translate(0.000000,1217.000000) scale(0.100000,-0.100000)"
fill="#0860A8" stroke="none">
<path d="M25440 6165 l0 -5735 1015 0 1015 0 0 5735 0 5735 -1015 0 -1015 0 0
-5735z"/>
<path d="M12263 7218 c3 -4393 0 -4100 51 -4514 122 -983 440 -1570 1046
-1928 476 -282 1080 -406 2053 -423 l357 -6 0 957 0 956 -27 0 c-114 0 -477
24 -609 40 -287 35 -444 97 -575 229 -136 136 -199 295 -234 589 -30 260 -35
520 -35 1940 l0 1432 740 0 740 0 0 880 0 880 -740 0 -740 0 0 1520 0 1520
-1015 0 -1015 0 3 -4072z"/>
<path d="M7710 8399 c-490 -30 -926 -160 -1325 -396 -337 -199 -621 -457 -876
-793 l-64 -85 -3 563 -2 562 -1005 0 -1005 0 0 -3910 0 -3910 1015 0 1014 0 4
2118 c3 2094 3 2119 25 2277 62 469 172 789 368 1070 159 228 457 469 722 584
266 116 568 165 874 143 469 -35 808 -168 1070 -420 284 -273 457 -652 530
-1162 l22 -155 3 -2227 3 -2228 1030 0 1030 0 0 2258 c0 2241 -3 2466 -35
2787 -155 1551 -1022 2586 -2389 2854 -313 62 -703 89 -1006 70z"/>
<path d="M20147 8399 c-430 -21 -895 -124 -1267 -279 -41 -17 -93 -38 -115
-47 -43 -18 -309 -152 -390 -198 -123 -69 -312 -195 -447 -297 -470 -356 -878
-848 -1146 -1383 -237 -474 -360 -887 -424 -1430 -8 -71 -13 -230 -13 -445 1
-290 4 -358 24 -505 32 -239 46 -318 92 -503 232 -944 775 -1757 1529 -2288
233 -165 584 -357 815 -447 515 -200 958 -288 1520 -303 556 -15 1158 71 1635
235 253 87 411 154 627 266 429 223 851 548 1191 919 l100 109 -56 43 c-32 24
-115 89 -187 143 -71 55 -197 152 -280 216 -82 63 -210 161 -283 218 -223 170
-270 206 -469 360 l-192 147 -48 -51 c-248 -267 -591 -494 -962 -637 -327
-127 -614 -181 -962 -182 -305 0 -558 33 -801 106 -342 102 -580 244 -833 498
-185 185 -321 394 -428 656 -33 79 -76 209 -91 273 l-6 27 3045 0 3045 0 0
428 c0 457 -8 635 -40 886 -91 710 -358 1371 -784 1943 -143 193 -375 441
-561 602 -568 490 -1314 811 -2085 896 -148 16 -534 38 -589 33 -17 -2 -91 -6
-164 -9z m573 -1774 c445 -68 784 -212 1095 -465 323 -263 567 -679 592 -1007
l6 -83 -2056 0 c-1131 0 -2058 4 -2061 8 -9 15 14 167 39 256 139 489 563 932
1100 1146 207 83 462 140 725 164 96 9 459 -4 560 -19z"/>
<path d="M200 4340 l0 -3910 1020 0 1020 0 0 3910 0 3910 -1020 0 -1020 0 0
-3910z"/>
<path d="M28995 1870 c-136 -19 -307 -104 -406 -202 -102 -100 -179 -232 -216
-368 -27 -98 -24 -281 6 -385 69 -244 251 -435 497 -522 73 -26 91 -28 229
-28 138 0 156 2 229 28 122 43 211 100 306 196 71 71 94 103 133 181 68 138
82 200 81 355 -1 118 -4 139 -32 225 -99 298 -368 508 -672 524 -52 2 -122 1
-155 -4z m291 -151 c250 -77 426 -306 441 -574 6 -112 -13 -200 -67 -311 -72
-144 -198 -256 -353 -313 -64 -23 -87 -26 -202 -26 -115 0 -138 3 -202 26
-240 88 -403 305 -419 559 -21 314 208 604 521 660 72 13 202 3 281 -21z"/>
<path d="M28820 1125 l0 -435 75 0 75 0 2 178 3 177 56 3 55 3 109 -181 109
-180 83 0 84 0 -20 28 c-36 51 -203 333 -200 336 2 2 27 11 55 20 29 9 65 31
83 50 77 79 81 250 7 342 -59 74 -144 94 -403 94 l-173 0 0 -435z m344 295
c56 -7 74 -14 98 -38 41 -41 47 -96 16 -142 -32 -47 -72 -59 -200 -59 l-108
-1 0 118 c0 65 3 122 7 125 9 10 104 8 187 -3z"/>
</g>
</svg>
